<svg width="93" height="91" viewBox="0 0 93 91" fill="none" xmlns="http://www.w3.org/2000/svg">
<path d="M69.4307 54.9661C67.3382 54.9661 65.5866 55.6909 64.1758 57.1404C62.765 58.59 62.0617 60.4108 62.0657 62.603V88.2947C59.5793 89.1964 57.0154 89.8756 54.4049 90.3241C51.713 90.7811 48.9858 91.0072 46.2541 90.9998C39.8376 90.9998 33.8307 89.8083 28.2334 87.4254C22.6361 85.0425 17.7427 81.8061 13.553 77.7164C9.36164 73.6274 6.05519 68.8136 3.6336 63.2751C1.212 57.7366 0.000804783 51.8113 0 45.4993C0 39.2514 1.2112 33.3586 3.6336 27.8209C6.05599 22.2832 9.36244 17.454 13.553 13.3333C17.7418 9.20872 22.6353 5.95574 28.2334 3.5744C33.8315 1.19305 39.8384 0.00158374 46.2541 3.94259e-07C52.6046 -0.000791277 58.5938 1.19067 64.2217 3.5744C69.8495 5.95812 74.7587 9.2107 78.9492 13.3321C83.1397 17.4528 86.4458 22.282 88.8674 27.8197C91.289 33.3575 92.5002 39.2503 92.501 45.4981C92.5049 47.1272 92.4243 48.7554 92.2595 50.3764C92.1014 51.9182 91.8556 53.4502 91.5231 54.9649L69.4307 54.9661ZM54.5039 58.0536C54.6995 57.7963 54.6009 57.4741 54.2082 57.087C53.8154 56.6999 53.3571 56.2645 52.8332 55.7808C52.3413 55.3302 51.8822 54.8461 51.4594 54.332C51.0659 53.8483 50.9347 53.3491 51.0659 52.8345C51.3515 51.9123 51.6962 51.0088 52.098 50.1294C52.4578 49.3559 52.6537 48.7119 52.6859 48.1973C52.7181 47.6827 52.4892 47.2964 51.9991 47.0383C51.5073 46.7802 50.5746 46.6512 49.2008 46.6512C48.5937 46.6452 47.9869 46.6777 47.384 46.7486C46.8923 46.8127 46.4497 46.861 46.0561 46.8935C45.6626 46.9259 45.2534 46.958 44.8284 46.9896C44.3206 47.0198 43.811 47.0035 43.3062 46.9409C42.3887 46.8768 41.6849 46.7161 41.1948 46.4588C40.7047 46.2015 40.2299 45.9438 39.7704 45.6858C39.237 45.3956 38.6783 45.1532 38.1008 44.9614C37.4458 44.7357 36.4965 44.5909 35.2531 44.5267C33.4826 44.4618 32.2223 44.3973 31.4723 44.3332C30.9256 44.3025 30.383 44.223 29.851 44.0957C29.5938 44.0154 29.3317 43.9507 29.0664 43.9021C28.6747 43.8602 28.2807 43.8439 27.8869 43.8534C27.2986 43.8534 26.2524 44.1111 24.7483 44.6265C23.1953 45.1607 21.6714 45.7735 20.1828 46.4624C18.7854 47.0966 17.4245 47.8058 16.1061 48.5868C14.9279 49.2993 14.3388 49.8792 14.3388 50.3265C14.3388 52.966 14.6173 55.0587 15.1742 56.6049C15.7311 58.151 16.3693 59.2784 17.0888 59.9869C17.454 60.3273 17.9183 60.5469 18.4167 60.6151C18.9728 60.7109 19.5763 60.79 20.2274 60.8526C20.8785 60.9151 21.4821 60.9943 22.0382 61.0901C22.5556 61.1647 23.0277 61.4223 23.3661 61.8145C24.022 62.5871 24.8243 62.8931 25.7732 62.7324C26.7027 62.5802 27.6225 62.3753 28.528 62.1185C29.4132 61.8596 30.1826 61.7626 30.8361 61.8275C31.4896 61.8924 31.8497 62.504 31.9165 63.6622C31.9165 64.1776 32.0147 64.5639 32.211 64.8212C32.4085 65.0795 32.6595 65.2936 32.9474 65.4494C33.242 65.6078 33.6186 65.8009 34.0773 66.0289C34.6093 66.3053 35.104 66.646 35.5501 67.0431C36.1392 67.5584 36.3521 68.0414 36.1887 68.4918C36.0086 68.9701 35.7424 69.4126 35.4028 69.7981C35.0385 70.2194 34.7098 70.6694 34.4202 71.1435C34.1256 71.6272 34.1421 72.0939 34.4697 72.5436C34.9284 73.2561 35.4193 73.7707 35.9424 74.0873C36.4655 74.404 36.9729 74.6938 37.4647 74.9566C37.9279 75.1965 38.3718 75.4708 38.7926 75.7772C39.1853 76.0677 39.4468 76.5348 39.5772 77.1784C39.6436 77.372 39.9044 77.7413 40.3631 78.2899C40.8218 78.8386 41.2636 79.3848 41.691 79.9323C42.0594 80.3979 42.4039 80.8814 42.7231 81.381C42.9839 81.799 42.9187 81.9451 42.5263 81.8156C43.3446 82.0152 44.1846 82.1149 45.0276 82.1125C45.9129 82.1125 46.4859 81.9193 46.7466 81.533C46.877 81.2753 46.9422 81.1768 46.9422 81.2433C46.9422 81.3098 47.0412 81.3074 47.2379 81.2433C47.4347 81.1791 47.9248 80.887 48.7107 80.374C49.471 79.8901 50.0282 79.1527 50.28 78.2971C50.547 77.3863 50.6791 76.4424 50.6724 75.4945C50.6724 74.497 50.6233 73.4829 50.5251 72.4522C50.4251 71.4874 50.4417 70.5144 50.5746 69.5534C50.705 68.7159 50.9174 68.1039 51.212 67.7176C51.5065 67.3312 51.7685 66.9936 51.9978 66.7046C52.2648 66.3392 52.4642 65.9304 52.5869 65.4969C52.7479 64.9815 52.7318 64.1444 52.5387 62.9853C52.3423 61.5033 52.5383 60.4405 53.1265 59.7969C53.6349 59.2571 54.0953 58.6754 54.5027 58.0584L54.5039 58.0536ZM65.8948 43.7561C65.3709 43.7561 65.2727 43.9009 65.6003 44.1907C65.9278 44.4804 66.434 44.7563 67.1189 45.0184C67.8289 45.2811 68.573 45.4438 69.3292 45.5017C70.1139 45.5658 70.7682 45.4047 71.2921 45.0184C71.7508 44.5679 72.5202 44.2117 73.6002 43.9496C74.6803 43.6876 75.7792 43.3832 76.897 43.0364C77.9509 42.7106 78.9452 42.2215 79.8425 41.5877C80.6932 40.9749 81.1841 40.089 81.3153 38.93C81.382 37.8517 81.3658 36.77 81.267 35.6941C81.164 34.6761 80.9499 33.672 80.6284 32.6992C80.2719 31.6362 79.8278 30.6036 79.3005 29.6117C78.7436 28.5485 78.0394 27.3408 77.188 25.9886C76.4152 24.7698 75.5795 23.5906 74.6843 22.4558C74.0044 21.6023 73.2663 20.7953 72.4751 20.0404C71.7682 19.376 71.0134 18.7628 70.2165 18.2057C69.4303 17.657 68.5136 17.0613 67.4666 16.4185C66.4839 15.8382 65.4691 15.21 64.4221 14.5339C63.4095 13.8736 62.2751 13.4153 61.083 13.1849C59.9048 12.9593 58.628 13.1041 57.2527 13.6195C55.8773 14.1349 54.3373 15.2622 52.6328 17.0015C52.1089 17.5161 51.5033 18.0956 50.816 18.74C50.1287 19.3845 49.392 20.0123 48.6057 20.6234C47.8866 21.1932 47.1141 21.6946 46.2988 22.1209C45.5455 22.508 44.9069 22.7012 44.383 22.7004C43.8591 22.6996 43.0277 22.8449 41.889 23.1362C40.6912 23.447 39.5486 23.9355 38.5004 24.5849C37.3695 25.2783 36.3857 26.1803 35.6032 27.2414C34.7863 28.3363 34.4101 29.6564 34.4745 31.2017C34.5397 32.9434 34.8507 34.0704 35.4076 34.5826C35.9646 35.0948 36.6844 35.3849 37.5673 35.453C38.4525 35.5171 39.4988 35.5813 40.7059 35.6454C41.9131 35.7095 43.2386 36.1283 44.6824 36.9018C46.2307 36.9567 47.7732 37.1182 49.2986 37.3851C50.542 37.5775 51.8023 37.8352 53.0795 38.1582C54.3567 38.4812 55.4206 38.8995 56.2712 39.4133C57.2523 39.9928 57.645 40.4112 57.4494 40.6685C57.2539 40.9258 56.9102 41.1515 56.4185 41.3454C55.9943 41.5085 55.5838 41.7042 55.1908 41.9309C54.8641 42.124 55.0604 42.4783 55.7799 42.9937C56.7626 43.7671 57.4989 44.2342 57.989 44.3949C58.4796 44.5552 59.0039 44.5884 59.5113 44.4911C60.0352 44.3945 60.7555 44.2497 61.6721 44.0565C62.5888 43.8633 63.9972 43.7667 65.8972 43.7667L65.8948 43.7561ZM89.1692 60.9511C90.2822 60.9511 91.1988 61.3217 91.9191 62.0627C92.2692 62.4129 92.545 62.8281 92.7305 63.2842C92.916 63.7402 93.0074 64.228 92.9995 64.7191V84.1408C92.9995 84.592 92.705 85.204 92.1159 85.9767C91.4829 86.7949 90.758 87.5403 89.955 88.1985C89.1434 88.8775 88.2899 89.5065 87.3994 90.0819C86.5488 90.6289 85.8615 90.9028 85.3376 90.9036H72.0816C70.9694 90.9036 70.0531 90.5494 69.3329 89.8408C68.9807 89.5012 68.7031 89.0941 68.5172 88.6448C68.3314 88.1954 68.2413 87.7133 68.2524 87.2283V64.7239C68.2445 64.2327 68.336 63.7449 68.5215 63.2889C68.707 62.8329 68.9828 62.4176 69.3329 62.0674C70.0523 61.3264 70.9686 60.9559 72.0816 60.9559L89.1692 60.9511ZM75.5196 66.9457C74.9957 66.9457 74.6336 67.3965 74.4332 68.2982C74.2328 69.2 74.1346 69.9085 74.1386 70.4239C74.1423 71.0194 74.259 71.609 74.4827 72.1624C74.712 72.7419 75.0561 73.0317 75.5148 73.0317H85.6297C85.8913 73.0317 86.1037 72.8868 86.2671 72.597C86.4299 72.3106 86.546 72.0009 86.6112 71.6791C86.681 71.2316 86.7137 70.7792 86.7089 70.3265C86.6972 69.6146 86.6318 68.9045 86.5134 68.2021C86.3822 67.3645 86.0877 66.9457 85.6297 66.9457H75.5196ZM86.616 83.3677C86.804 82.6743 86.9049 81.9608 86.9166 81.2433C86.9159 80.7252 86.7984 80.2138 86.5725 79.7458C86.3448 79.2621 85.9022 79.0206 85.2446 79.0214H75.912C75.675 79.0073 75.4399 79.0707 75.2434 79.2017C75.0469 79.3327 74.9 79.5241 74.8255 79.7458C74.6302 80.2264 74.4984 80.7297 74.4332 81.2433C74.3702 81.9526 74.4031 82.6669 74.531 83.3677C74.5303 83.6209 74.5822 83.8716 74.6835 84.1044C74.7848 84.3372 74.9334 84.5472 75.1201 84.7215C75.5136 85.1078 75.9063 85.3006 76.2983 85.2998H84.9404C85.1776 85.3097 85.4136 85.2622 85.6276 85.1613C85.8417 85.0605 86.0273 84.9094 86.1681 84.7215C86.4639 84.3309 86.6193 83.8547 86.61 83.3677H86.616Z" fill="white"/>
</svg>
